<svg width="1068" height="147" viewBox="0 0 1068 147" fill="none" xmlns="http://www.w3.org/2000/svg">
<g clip-path="url(#clip0_1649_15)">
<path d="M67.6765 116.568V54.0429H85.3026V64.6424H86.0172C87.1287 61.3871 89.074 58.5685 91.8529 56.1866C94.6317 53.8047 98.4825 52.6138 103.405 52.6138C109.836 52.6138 114.679 54.7575 117.935 59.0449C121.269 63.3323 122.937 69.4459 122.937 77.3856V116.568H105.311V78.8147C105.311 74.7655 104.675 71.7881 103.405 69.8826C102.135 67.8977 99.8719 66.9052 96.6167 66.9052C95.1875 66.9052 93.7981 67.1037 92.4483 67.5007C91.0986 67.8183 89.8679 68.374 88.7564 69.168C87.7242 69.962 86.8906 70.9544 86.2554 72.1454C85.6202 73.2569 85.3026 74.567 85.3026 76.0755V116.568H67.6765ZM138.622 116.568V54.0429H156.248V64.6424H156.963C158.074 61.3871 160.019 58.5685 162.798 56.1866C165.577 53.8047 169.428 52.6138 174.351 52.6138C180.782 52.6138 185.625 54.7575 188.88 59.0449C192.215 63.3323 193.882 69.4459 193.882 77.3856V116.568H176.256V78.8147C176.256 74.7655 175.621 71.7881 174.351 69.8826C173.08 67.8977 170.817 66.9052 167.562 66.9052C166.133 66.9052 164.744 67.1037 163.394 67.5007C162.044 67.8183 160.813 68.374 159.702 69.168C158.67 69.962 157.836 70.9544 157.201 72.1454C156.566 73.2569 156.248 74.567 156.248 76.0755V116.568H138.622Z" fill="#128664"/>
<path d="M214.571 28.4374H232.197V64.5233H232.793C233.666 61.0298 235.651 58.1715 238.748 55.9484C241.924 53.7253 245.536 52.6138 249.585 52.6138C257.525 52.6138 263.52 55.3926 267.569 60.9504C271.618 66.5082 273.643 74.6067 273.643 85.2459C273.643 95.8851 271.618 104.023 267.569 109.66C263.52 115.218 257.525 117.997 249.585 117.997C247.521 117.997 245.576 117.68 243.75 117.044C241.924 116.489 240.256 115.695 238.748 114.662C237.319 113.551 236.088 112.281 235.056 110.851C234.024 109.343 233.269 107.755 232.793 106.088H232.197V116.568H214.571V28.4374ZM243.75 103.706C247.084 103.706 249.824 102.554 251.967 100.252C254.19 97.87 255.302 94.6941 255.302 90.7243V79.8866C255.302 75.9167 254.19 72.7806 251.967 70.478C249.824 68.0961 247.084 66.9052 243.75 66.9052C240.415 66.9052 237.636 67.7389 235.413 69.4062C233.269 70.9941 232.197 73.2172 232.197 76.0755V94.5353C232.197 97.3936 233.269 99.6564 235.413 101.324C237.636 102.912 240.415 103.706 243.75 103.706Z" fill="#128664"/>
<path d="M329.617 54.0429H346.053L321.995 126.215C320.407 131.058 318.145 134.631 315.207 136.933C312.349 139.236 308.22 140.387 302.821 140.387H291.864V126.691H303.655L305.798 119.784L283.885 54.0429H301.392L310.562 83.2213L315.088 101.324H315.802L320.447 83.2213L329.617 54.0429Z" fill="#128664"/>
<path d="M415.962 121.094C415.962 124.428 415.366 127.366 414.175 129.907C413.064 132.447 411.198 134.591 408.578 136.338C405.958 138.164 402.464 139.514 398.098 140.387C393.81 141.34 388.491 141.816 382.139 141.816C376.74 141.816 372.135 141.459 368.324 140.744C364.592 140.109 361.535 139.156 359.153 137.886C356.851 136.695 355.144 135.187 354.032 133.36C353 131.614 352.484 129.589 352.484 127.287C352.484 123.793 353.516 121.054 355.581 119.069C357.645 117.084 360.503 115.853 364.155 115.377V114.067C361.138 113.511 358.876 112.241 357.367 110.256C355.858 108.192 355.104 105.81 355.104 103.11C355.104 101.443 355.422 100.014 356.057 98.8227C356.772 97.5524 357.645 96.4805 358.677 95.6072C359.789 94.6544 361.059 93.9001 362.488 93.3444C363.917 92.7886 365.346 92.3519 366.776 92.0343V91.5579C362.964 89.8112 360.146 87.4293 358.32 84.4122C356.494 81.3157 355.581 77.7429 355.581 73.6936C355.581 67.3419 357.764 62.2605 362.131 58.4494C366.577 54.559 373.326 52.6138 382.377 52.6138C386.506 52.6138 390.039 53.0107 392.976 53.8047V51.4228C392.976 48.0881 393.77 45.7062 395.358 44.2771C397.026 42.7685 399.368 42.0143 402.385 42.0143H412.27V55.1147H398.455V55.8293C402.107 57.5761 404.807 59.9977 406.553 63.0941C408.3 66.1112 409.173 69.6444 409.173 73.6936C409.173 79.966 406.95 85.0077 402.504 88.8187C398.137 92.5504 391.428 94.4162 382.377 94.4162C378.328 94.4162 374.636 93.9795 371.301 93.1062C369.475 94.2971 368.562 95.9645 368.562 98.1082C368.562 99.6167 369.118 100.808 370.229 101.681C371.42 102.475 373.365 102.872 376.065 102.872H394.167C401.79 102.872 407.308 104.46 410.722 107.636C414.215 110.812 415.962 115.298 415.962 121.094ZM399.408 123.475C399.408 121.649 398.693 120.26 397.264 119.307C395.835 118.354 393.334 117.878 389.761 117.878H368.324C367.53 118.672 366.934 119.545 366.537 120.498C366.22 121.53 366.061 122.523 366.061 123.475C366.061 125.778 367.053 127.445 369.038 128.477C371.023 129.589 374.398 130.145 379.161 130.145H386.307C391.071 130.145 394.445 129.589 396.43 128.477C398.415 127.445 399.408 125.778 399.408 123.475ZM382.377 82.864C385.87 82.864 388.451 82.1494 390.118 80.7202C391.865 79.2117 392.738 77.068 392.738 74.2891V72.86C392.738 70.0811 391.865 67.977 390.118 66.5479C388.451 65.0394 385.87 64.2851 382.377 64.2851C378.884 64.2851 376.263 65.0394 374.517 66.5479C372.849 67.977 372.016 70.0811 372.016 72.86V74.2891C372.016 77.068 372.849 79.2117 374.517 80.7202C376.263 82.1494 378.884 82.864 382.377 82.864Z" fill="#128664"/>
<path d="M488.109 121.094C488.109 124.428 487.513 127.366 486.322 129.907C485.211 132.447 483.345 134.591 480.725 136.338C478.105 138.164 474.611 139.514 470.244 140.387C465.957 141.34 460.637 141.816 454.285 141.816C448.887 141.816 444.281 141.459 440.47 140.744C436.739 140.109 433.682 139.156 431.3 137.886C428.998 136.695 427.291 135.187 426.179 133.36C425.147 131.614 424.631 129.589 424.631 127.287C424.631 123.793 425.663 121.054 427.727 119.069C429.792 117.084 432.65 115.853 436.302 115.377V114.067C433.285 113.511 431.022 112.241 429.514 110.256C428.005 108.192 427.251 105.81 427.251 103.11C427.251 101.443 427.568 100.014 428.204 98.8227C428.918 97.5524 429.792 96.4805 430.824 95.6072C431.935 94.6544 433.206 93.9001 434.635 93.3444C436.064 92.7886 437.493 92.3519 438.922 92.0343V91.5579C435.111 89.8112 432.293 87.4293 430.466 84.4122C428.64 81.3157 427.727 77.7429 427.727 73.6936C427.727 67.3419 429.911 62.2605 434.277 58.4494C438.724 54.559 445.472 52.6138 454.524 52.6138C458.652 52.6138 462.185 53.0107 465.123 53.8047V51.4228C465.123 48.0881 465.917 45.7062 467.505 44.2771C469.172 42.7685 471.515 42.0143 474.532 42.0143H484.417V55.1147H470.602V55.8293C474.254 57.5761 476.953 59.9977 478.7 63.0941C480.447 66.1112 481.32 69.6444 481.32 73.6936C481.32 79.966 479.097 85.0077 474.651 88.8187C470.284 92.5504 463.575 94.4162 454.524 94.4162C450.474 94.4162 446.782 93.9795 443.448 93.1062C441.622 94.2971 440.709 95.9645 440.709 98.1082C440.709 99.6167 441.264 100.808 442.376 101.681C443.567 102.475 445.512 102.872 448.212 102.872H466.314C473.936 102.872 479.454 104.46 482.868 107.636C486.362 110.812 488.109 115.298 488.109 121.094ZM471.554 123.475C471.554 121.649 470.84 120.26 469.411 119.307C467.981 118.354 465.48 117.878 461.908 117.878H440.47C439.676 118.672 439.081 119.545 438.684 120.498C438.366 121.53 438.208 122.523 438.208 123.475C438.208 125.778 439.2 127.445 441.185 128.477C443.17 129.589 446.544 130.145 451.308 130.145H458.454C463.218 130.145 466.592 129.589 468.577 128.477C470.562 127.445 471.554 125.778 471.554 123.475ZM454.524 82.864C458.017 82.864 460.598 82.1494 462.265 80.7202C464.012 79.2117 464.885 77.068 464.885 74.2891V72.86C464.885 70.0811 464.012 67.977 462.265 66.5479C460.598 65.0394 458.017 64.2851 454.524 64.2851C451.03 64.2851 448.41 65.0394 446.663 66.5479C444.996 67.977 444.162 70.0811 444.162 72.86V74.2891C444.162 77.068 444.996 79.2117 446.663 80.7202C448.41 82.1494 451.03 82.864 454.524 82.864Z" fill="#128664"/>
<path d="M526.952 117.997C522.189 117.997 517.941 117.243 514.209 115.734C510.478 114.146 507.302 111.963 504.682 109.184C502.141 106.326 500.196 102.872 498.846 98.8227C497.576 94.7735 496.94 90.2479 496.94 85.2459C496.94 80.3233 497.576 75.877 498.846 71.9072C500.116 67.858 501.982 64.4042 504.443 61.5459C506.984 58.6876 510.081 56.5042 513.733 54.9957C517.385 53.4077 521.553 52.6138 526.238 52.6138C531.399 52.6138 535.805 53.4871 539.457 55.2338C543.189 56.9806 546.206 59.3228 548.509 62.2605C550.891 65.1982 552.598 68.6122 553.63 72.5027C554.741 76.3137 555.297 80.3233 555.297 84.5313V89.7715H515.162V90.7243C515.162 94.8529 516.274 98.1479 518.497 100.609C520.72 102.991 524.213 104.182 528.977 104.182C532.629 104.182 535.607 103.467 537.909 102.038C540.212 100.53 542.355 98.7433 544.34 96.679L553.153 107.636C550.375 110.891 546.722 113.432 542.197 115.258C537.75 117.084 532.669 117.997 526.952 117.997ZM526.595 65.5951C523.022 65.5951 520.204 66.7861 518.139 69.168C516.154 71.4705 515.162 74.567 515.162 78.4574V79.4102H537.076V78.3383C537.076 74.5273 536.202 71.4705 534.455 69.168C532.788 66.7861 530.168 65.5951 526.595 65.5951ZM567.745 116.568V54.0429H585.372V67.6198H585.967C586.285 65.873 586.84 64.2057 587.634 62.6178C588.428 60.9504 589.46 59.4816 590.731 58.2112C592.081 56.9409 593.669 55.9484 595.495 55.2338C597.321 54.4399 599.464 54.0429 601.926 54.0429H605.022V70.478H600.616C595.455 70.478 591.604 71.1529 589.063 72.5027C586.602 73.8524 585.372 76.3534 585.372 80.0057V116.568H567.745Z" fill="#128664"/>
<path d="M628.183 28.4374H641.165V82.5067H641.76L650.335 71.4308L665.222 54.6384H680.347L658.672 78.5765L682.967 116.568H667.485L649.739 87.0323L641.165 96.3217V116.568H628.183V28.4374Z" fill="#128664"/>
<path d="M719.768 117.997C715.48 117.997 711.55 117.243 707.977 115.734C704.484 114.226 701.507 112.082 699.045 109.303C696.584 106.445 694.678 103.031 693.329 99.0609C691.979 95.0117 691.304 90.5258 691.304 85.6032C691.304 80.6805 691.979 76.2343 693.329 72.2645C694.678 68.2152 696.584 64.8012 699.045 62.0223C701.507 59.164 704.484 56.9806 707.977 55.472C711.55 53.9635 715.48 53.2092 719.768 53.2092C724.055 53.2092 727.946 53.9635 731.439 55.472C735.012 56.9806 738.029 59.164 740.49 62.0223C742.952 64.8012 744.857 68.2152 746.207 72.2645C747.557 76.2343 748.232 80.6805 748.232 85.6032C748.232 90.5258 747.557 95.0117 746.207 99.0609C744.857 103.031 742.952 106.445 740.49 109.303C738.029 112.082 735.012 114.226 731.439 115.734C727.946 117.243 724.055 117.997 719.768 117.997ZM719.768 107.279C724.214 107.279 727.787 105.929 730.486 103.229C733.186 100.45 734.536 96.3217 734.536 90.8434V80.363C734.536 74.8846 733.186 70.7956 730.486 68.0961C727.787 65.3173 724.214 63.9278 719.768 63.9278C715.322 63.9278 711.749 65.3173 709.049 68.0961C706.35 70.7956 705 74.8846 705 80.363V90.8434C705 96.3217 706.35 100.45 709.049 103.229C711.749 105.929 715.322 107.279 719.768 107.279ZM762.696 116.568V54.6384H775.677V64.8806H776.273C777.623 61.5459 779.647 58.767 782.347 56.5439C785.126 54.3208 788.897 53.2092 793.661 53.2092C800.013 53.2092 804.935 55.3132 808.429 59.5213C812.002 63.6499 813.788 69.565 813.788 77.2665V116.568H800.807V78.9338C800.807 69.2474 796.916 64.4042 789.135 64.4042C787.468 64.4042 785.801 64.6424 784.133 65.1188C782.545 65.5157 781.116 66.1509 779.846 67.0243C778.575 67.8977 777.543 69.0092 776.749 70.359C776.035 71.7087 775.677 73.2966 775.677 75.1228V116.568H762.696ZM848.93 116.568C844.405 116.568 840.991 115.417 838.688 113.114C836.386 110.732 835.234 107.398 835.234 103.11V65.2379H825.588V54.6384H830.828C832.972 54.6384 834.44 54.162 835.234 53.2092C836.108 52.2565 836.545 50.7082 836.545 48.5645V37.7268H848.216V54.6384H861.197V65.2379H848.216V105.968H860.244V116.568H848.93ZM920.654 116.568C917.24 116.568 914.62 115.615 912.793 113.71C910.967 111.725 909.856 109.224 909.459 106.207H908.863C907.672 110.097 905.489 113.035 902.313 115.02C899.137 117.005 895.286 117.997 890.761 117.997C884.33 117.997 879.367 116.33 875.874 112.995C872.46 109.66 870.753 105.174 870.753 99.5373C870.753 93.3444 872.976 88.6996 877.422 85.6032C881.948 82.5067 888.538 80.9584 897.192 80.9584H908.387V75.7182C908.387 71.9072 907.355 68.9695 905.29 66.9052C903.226 64.8409 900.011 63.8087 895.644 63.8087C891.991 63.8087 889.014 64.6027 886.712 66.1906C884.409 67.7786 882.464 69.8032 880.876 72.2645L873.135 65.2379C875.199 61.7444 878.097 58.8861 881.829 56.663C885.56 54.3605 890.443 53.2092 896.477 53.2092C904.496 53.2092 910.65 55.0751 914.937 58.8067C919.225 62.5384 921.368 67.8977 921.368 74.8846V105.968H927.919V116.568H920.654ZM894.453 108.112C898.502 108.112 901.837 107.239 904.457 105.492C907.077 103.666 908.387 101.244 908.387 98.2273V89.2951H897.43C888.458 89.2951 883.972 92.074 883.972 97.6318V99.7755C883.972 102.554 884.885 104.658 886.712 106.088C888.617 107.437 891.197 108.112 894.453 108.112Z" fill="#128664"/>
<path d="M943.276 27.6013H956.257V81.6706H956.853L965.428 70.5947L980.315 53.8022H995.44L973.764 77.7404L998.06 115.732H982.577L964.832 86.1962L956.257 95.4856V115.732H943.276V27.6013Z" fill="#128664"/>
<path d="M1029.82 116.568C1025.3 116.568 1021.88 115.417 1019.58 113.114C1017.28 110.732 1016.13 107.398 1016.13 103.11V65.2379H1006.48V54.6384H1011.72C1013.86 54.6384 1015.33 54.162 1016.13 53.2092C1017 52.2565 1017.44 50.7082 1017.44 48.5645V37.7268H1029.11V54.6384H1042.09V65.2379H1029.11V105.968H1041.14V116.568H1029.82Z" fill="#128664"/>
<path d="M19.4598 52.3393H46.4129C47.0397 52.3393 47.3531 52.6527 47.3531 53.2795V115.961C47.3531 116.588 47.0397 116.902 46.4129 116.902H19.4598C18.8329 116.902 18.5195 116.588 18.5195 115.961V53.2795C18.5195 52.6527 18.8329 52.3393 19.4598 52.3393Z" fill="#128664"/>
<path d="M30.7423 3.76085L6.60986 37.2956C5.98304 37.9224 6.29645 38.8626 6.92327 39.4895C7.23667 39.8029 7.55008 39.8029 7.86349 39.8029H56.1284C57.0687 39.8029 57.6955 39.176 57.6955 38.2358C57.6955 37.9224 57.6955 37.609 57.3821 37.2956L33.2496 3.76085C32.6228 3.13403 31.6826 2.82063 31.0557 3.44744L30.7423 3.76085Z" fill="#128664"/>
</g>
<defs>
<clipPath id="clip0_1649_15">
<rect width="1067.47" height="146.362" fill="white"/>
</clipPath>
</defs>
</svg>
