<svg width="34" height="35" fill="none" xmlns="http://www.w3.org/2000/svg"><rect y=".5" width="34" height="34" rx="17" fill="#1DD19D"/><g clip-path="url(#a)" fill="#052B58"><path d="M19.544 28h-4.957c-.087 0-.13-.046-.13-.138V15.704c0-.092.043-.138.13-.138h4.957c.087 0 .13.046.13.138v12.158c0 .092-.043.138-.13.138ZM16.804 7.092l-4.26 6.31c-.088.138 0 .368.173.368h8.566c.173 0 .26-.23.173-.369l-4.26-6.309a.237.237 0 0 0-.392 0Z"/></g><defs><clipPath id="a"><path fill="#fff" transform="translate(12.5 7)" d="M0 0h9v21H0z"/></clipPath></defs></svg>